<?xml version="1.0" encoding="utf-8"?>
<!-- Generated by IcoMoon.io -->
<!DOCTYPE svg PUBLIC "-//W3C//DTD SVG 1.1//EN" "http://www.w3.org/Graphics/SVG/1.1/DTD/svg11.dtd">
<svg version="1.1" xmlns="http://www.w3.org/2000/svg" xmlns:xlink="http://www.w3.org/1999/xlink" width="4926" height="1024" viewBox="0 0 4926 1024">
<g id="icomoon-ignore">
</g>
<path d="M1118.842 435.682c31.12-5.928 37.048-13.337 37.048-47.421v-139.3c0-13.337-5.928-19.265-37.048-20.747v-14.819h84.469l65.204 179.311h2.964l65.204-179.311h84.469v14.819c-29.638 1.482-37.048 4.446-37.048 14.819v173.384c0 10.373 7.41 14.819 37.048 14.819v14.819h-105.216v-14.819c28.156-1.482 31.12-2.964 31.12-14.819v-173.384h-2.964l-77.059 205.986h-14.819l-77.059-205.986h-2.964v145.227c0 32.602 2.964 41.493 34.084 47.421v13.337h-90.397v-13.337zM1465.609 366.032c0 37.048 17.783 66.686 53.349 66.686 20.747 0 37.048-11.855 50.385-29.638l8.891 8.891c-13.337 22.229-34.084 41.493-69.65 41.493-50.385 0-77.059-35.566-77.059-82.987 0-48.903 31.12-85.951 77.059-85.951 50.385 0 69.65 41.493 66.686 81.505h-109.661zM1541.187 349.731c1.482-29.638-10.373-53.349-35.566-53.349-22.229 0-37.048 14.819-40.012 54.831l75.577-1.482zM1810.894 283.045c25.192 0 40.012 17.783 40.012 50.385v88.915c0 8.891 5.928 11.855 26.674 11.855v14.819h-78.541v-14.819c17.783 0 20.747-4.446 20.747-11.855v-75.577c0-29.638-10.373-38.53-31.12-38.53-11.855 0-25.192 5.928-38.53 16.301 0 2.964 0 7.41 0 10.373v85.951c0 8.891 2.964 11.855 23.711 11.855v14.819h-77.059v-14.819c17.783 0 20.747-4.446 20.747-11.855v-75.577c0-29.638-11.855-38.53-32.602-38.53-16.301 0-26.674 7.41-37.048 13.337v100.77c0 8.891 2.964 11.855 20.747 11.855v14.819h-78.541v-14.819c20.747 0 26.674-4.446 26.674-11.855v-103.734c0-10.373-5.928-17.783-26.674-17.783v-14.819l57.795-1.482v25.192c19.265-13.337 37.048-25.192 60.758-25.192 17.783 0 32.602 10.373 38.53 29.638 20.747-17.783 41.493-29.638 63.722-29.638zM1883.508 368.996c0-50.385 32.602-85.951 81.505-85.951 50.385 0 81.505 34.084 81.505 84.469s-32.602 85.951-81.505 85.951c-51.867 0-81.505-35.566-81.505-84.469zM2009.47 367.514c0-47.421-17.783-69.65-47.421-69.65-28.156 0-42.975 20.747-42.975 69.65 0 47.421 17.783 69.65 47.421 69.65 26.674 0 42.975-22.229 42.975-69.65zM2056.891 434.2c20.747 0 26.674-4.446 26.674-11.855v-103.734c0-10.373-5.928-17.783-26.674-17.783v-14.819l57.795-1.482v28.156c11.855-16.301 28.156-29.638 45.939-29.638s26.674 11.855 26.674 26.674c0 11.855-8.891 20.747-19.265 20.747s-20.747-5.928-20.747-19.265c0-1.482 0-4.446 0-5.928-16.301 0-26.674 10.373-34.084 19.265v96.324c0 8.891 5.928 11.855 29.638 11.855v14.819h-88.915v-13.337zM2200.637 434.2c20.747 0 26.674-4.446 26.674-11.855v-103.734c0-10.373-4.446-17.783-25.192-17.783v-14.819l57.795-1.482v137.818c0 8.891 4.446 11.855 26.674 11.855v14.819h-84.469v-14.819zM2221.384 223.768c0-13.337 8.891-22.229 20.747-22.229 13.337 0 20.747 8.891 20.747 22.229s-8.891 22.229-20.747 22.229c-11.855-1.482-20.747-8.891-20.747-22.229zM2299.925 413.453c0-14.819 7.41-29.638 22.229-37.048 26.674-14.819 69.65-20.747 75.577-25.192v-10.373c0-31.12-8.891-42.975-32.602-42.975-11.855 0-17.783 2.964-23.711 7.41 2.964 5.928 4.446 11.855 4.446 16.301 0 10.373-7.41 19.265-19.265 19.265s-19.265-8.891-19.265-19.265c0-23.711 29.638-40.012 63.722-40.012 37.048 0 59.276 16.301 59.276 50.385v78.541c0 17.783 2.964 22.229 26.674 19.265l1.482 11.855c-13.337 4.446-20.747 7.41-31.12 7.41-19.265 0-23.711-7.41-26.674-28.156h-2.964c-14.819 16.301-31.12 28.156-51.867 28.156-31.12 1.482-45.939-14.819-45.939-35.566zM2397.731 407.525v-42.975c-50.385 11.855-60.758 19.265-60.758 40.012 0 13.337 7.41 23.711 25.192 23.711 13.337 1.482 26.674-8.891 35.566-20.747zM2467.381 434.2c20.747 0 26.674-4.446 26.674-11.855v-188.203c0-10.373-7.41-17.783-28.156-17.783v-14.819l59.276-1.482v222.287c0 8.891 5.928 11.855 26.674 11.855v14.819h-84.469v-14.819zM2631.873 379.369h13.337c19.265 41.493 42.975 57.795 72.614 57.795 32.602 0 45.939-20.747 45.939-40.012 0-25.192-16.301-35.566-60.758-50.385-32.602-11.855-68.168-22.229-68.168-66.686s35.566-71.132 80.023-71.132c20.747 0 32.602 4.446 44.457 8.891l11.855-10.373h10.373v69.65h-13.337c-11.855-32.602-31.12-48.903-59.276-48.903-22.229 0-41.493 14.819-41.493 38.53s17.783 32.602 56.313 45.939c32.602 10.373 68.168 22.229 68.168 66.686 0 35.566-22.229 77.059-81.505 77.059-19.265 0-37.048-4.446-51.867-10.373l-19.265 11.855h-10.373v-78.541zM2805.256 434.2c20.747 0 26.674-4.446 26.674-11.855v-188.203c0-10.373-7.41-17.783-28.156-17.783v-14.819l59.276-1.482v222.287c0 8.891 5.928 11.855 26.674 11.855v14.819h-84.469v-14.819zM2897.135 368.996c0-50.385 32.602-85.951 81.505-85.951 50.385 0 81.505 34.084 81.505 84.469s-32.602 85.951-81.505 85.951c-51.867 0-81.505-35.566-81.505-84.469zM3023.097 367.514c0-47.421-17.783-69.65-47.421-69.65-28.156 0-42.975 20.747-42.975 69.65 0 47.421 17.783 69.65 47.421 69.65 28.156 0 42.975-22.229 42.975-69.65zM3076.446 413.453c0-14.819 7.41-29.638 22.229-37.048 26.674-14.819 69.65-20.747 75.577-25.192v-10.373c0-31.12-8.891-42.975-32.602-42.975-11.855 0-17.783 2.964-23.711 7.41 2.964 5.928 4.446 11.855 4.446 16.301 0 10.373-7.41 19.265-19.265 19.265s-19.265-8.891-19.265-19.265c0-23.711 29.638-40.012 63.722-40.012 37.048 0 59.276 16.301 59.276 50.385v78.541c0 17.783 2.964 22.229 26.674 19.265l1.482 11.855c-13.337 4.446-20.747 7.41-31.12 7.41-19.265 0-23.711-7.41-26.674-28.156h-2.964c-14.819 16.301-31.12 28.156-51.867 28.156-31.12 1.482-45.939-14.819-45.939-35.566zM3174.252 407.525v-42.975c-50.385 11.855-60.758 19.265-60.758 40.012 0 13.337 7.41 23.711 25.192 23.711 14.819 1.482 26.674-8.891 35.566-20.747zM3245.384 434.2c20.747 0 26.674-4.446 26.674-11.855v-103.734c0-10.373-5.928-17.783-26.674-17.783v-14.819l57.795-1.482v25.192c19.265-13.337 40.012-25.192 63.722-25.192 25.192 0 41.493 17.783 41.493 50.385v88.915c0 8.891 4.446 11.855 26.674 11.855v14.819h-81.505v-14.819c17.783 0 22.229-4.446 22.229-11.855v-75.577c0-29.638-10.373-38.53-31.12-38.53-16.301 0-29.638 7.41-40.012 13.337v100.77c0 8.891 4.446 11.855 22.229 11.855v14.819h-81.505v-16.301zM3574.368 417.899c0 11.855 1.482 14.819 29.638 14.819v14.819h-103.734v-14.819c29.638-1.482 37.048-4.446 37.048-14.819v-173.384c0-10.373-7.41-14.819-37.048-14.819v-14.819h108.179v14.819c-31.12 1.482-34.084 2.964-34.084 14.819v91.878l77.059-77.059c17.783-17.783 16.301-28.156-10.373-31.12v-13.337h91.878v13.337c-26.674 4.446-37.048 10.373-62.24 35.566l-47.421 45.939 69.65 94.842c13.337 17.783 19.265 26.674 48.903 31.12v14.819h-103.734v-14.819c25.192-2.964 31.12-8.891 19.265-25.192l-54.831-77.059-25.192 23.711v60.758zM3781.835 366.032c0 37.048 17.783 66.686 53.349 66.686 20.747 0 37.048-11.855 50.385-29.638l8.891 8.891c-13.337 22.229-34.084 41.493-69.65 41.493-50.385 0-77.059-35.566-77.059-82.987 0-48.903 31.12-85.951 77.059-85.951 50.385 0 69.65 41.493 66.686 81.505h-109.661zM3857.412 349.731c1.482-29.638-8.891-53.349-35.566-53.349-22.229 0-37.048 14.819-40.012 54.831l75.577-1.482zM3928.544 407.525v-105.216h-29.638v-11.855l29.638-5.928v-45.939l31.12-13.337v59.276h50.385v17.783h-50.385v100.77c0 19.265 5.928 28.156 20.747 28.156 10.373 0 17.783-7.41 25.192-19.265l10.373 7.41c-13.337 23.711-25.192 32.602-47.421 32.602-25.192 1.482-40.012-16.301-40.012-44.457zM4054.507 407.525v-105.216h-29.638v-11.855l29.638-5.928v-45.939l31.12-13.337v59.276h50.385v17.783h-50.385v100.77c0 19.265 5.928 28.156 20.747 28.156 10.373 0 17.783-7.41 25.192-19.265l10.373 7.41c-13.337 23.711-25.192 32.602-47.421 32.602-26.674 1.482-40.012-16.301-40.012-44.457zM4186.397 366.032c0 37.048 17.783 66.686 53.349 66.686 20.747 0 37.048-11.855 50.385-29.638l8.891 8.891c-13.337 22.229-34.084 41.493-69.65 41.493-50.385 0-77.059-35.566-77.059-82.987 0-48.903 31.12-85.951 77.059-85.951 50.385 0 69.65 41.493 66.686 81.505h-109.661zM4261.974 349.731c1.482-29.638-10.373-53.349-35.566-53.349-22.229 0-37.048 14.819-40.012 54.831l75.577-1.482zM4310.877 434.2c20.747 0 26.674-4.446 26.674-11.855v-103.734c0-10.373-5.928-17.783-26.674-17.783v-14.819l57.795-1.482v28.156c11.855-16.301 28.156-29.638 45.939-29.638s26.674 11.855 26.674 26.674c0 11.855-8.891 20.747-19.265 20.747s-20.747-5.928-20.747-19.265c0-1.482 0-4.446 0-5.928-16.301 0-26.674 10.373-34.084 19.265v96.324c0 8.891 5.928 11.855 29.638 11.855v14.819h-88.915v-13.337zM4454.622 434.2c20.747 0 26.674-4.446 26.674-11.855v-103.734c0-10.373-4.446-17.783-25.192-17.783v-14.819l57.795-1.482v137.818c0 8.891 4.446 11.855 26.674 11.855v14.819h-84.469v-14.819zM4473.887 223.768c0-13.337 8.891-22.229 20.747-22.229 13.337 0 20.747 8.891 20.747 22.229s-8.891 22.229-20.747 22.229c-11.855-1.482-20.747-8.891-20.747-22.229zM4553.91 434.2c20.747 0 26.674-4.446 26.674-11.855v-103.734c0-10.373-5.928-17.783-26.674-17.783v-14.819l57.795-1.482v25.192c19.265-13.337 40.012-25.192 63.722-25.192 25.192 0 41.493 17.783 41.493 50.385v88.915c0 8.891 4.446 11.855 26.674 11.855v14.819h-81.505v-14.819c17.783 0 22.229-4.446 22.229-11.855v-75.577c0-29.638-10.373-38.53-31.12-38.53-16.301 0-29.638 7.41-40.012 13.337v100.77c0 8.891 4.446 11.855 22.229 11.855v14.819h-81.505v-16.301zM4891.786 260.816c11.855 0 19.265 7.41 19.265 17.783 0 8.891-5.928 16.301-13.337 16.301-8.891 0-16.301-5.928-16.301-16.301-7.41 2.964-16.301 8.891-20.747 16.301 14.819 8.891 25.192 23.711 25.192 44.457 0 34.084-28.156 56.313-63.722 56.313-7.41 0-14.819 0-20.747-2.964-8.891 4.446-14.819 10.373-14.819 16.301 0 7.41 4.446 14.819 34.084 14.819h16.301c47.421 0 68.168 11.855 68.168 41.493 0 28.156-29.638 59.276-85.951 59.276-47.421 0-71.132-17.783-71.132-38.53 0-16.301 16.301-31.12 42.975-35.566v-5.928c-20.747-4.446-28.156-13.337-28.156-28.156 0-10.373 8.891-20.747 25.192-29.638-17.783-8.891-29.638-23.711-29.638-47.421 0-34.084 28.156-56.313 65.204-56.313 10.373 0 20.747 1.482 28.156 4.446 5.928-14.819 20.747-26.674 40.012-26.674zM4878.449 475.693c0-14.819-8.891-23.711-44.457-23.711h-29.638c-19.265 2.964-31.12 13.337-31.12 28.156 0 16.301 17.783 28.156 53.349 28.156 31.12-1.482 51.867-16.301 51.867-32.602zM4853.256 339.357c0-26.674-13.337-42.975-32.602-42.975-17.783 0-29.638 10.373-29.638 42.975s14.819 41.493 32.602 41.493c16.301 0 29.638-11.855 29.638-41.493zM1120.324 705.389c0-72.614 53.349-125.962 121.517-125.962 25.192 0 42.975 8.891 56.313 16.301l10.373-14.819h13.337v81.505h-11.855c-16.301-40.012-37.048-63.722-72.614-63.722-41.493 0-77.059 37.048-77.059 106.698 0 65.204 41.493 99.288 82.987 99.288 40.012 0 59.276-22.229 74.096-51.867l14.819 7.41c-14.819 34.084-45.939 68.168-97.806 68.168-66.686-1.482-114.107-50.385-114.107-122.999zM1350.020 785.412c0-14.819 7.41-29.638 22.229-37.048 26.674-14.819 69.65-20.747 75.577-25.192v-10.373c0-31.12-8.891-42.975-32.602-42.975-11.855 0-17.783 2.964-23.711 7.41 2.964 5.928 4.446 11.855 4.446 16.301 0 10.373-7.41 19.265-19.265 19.265s-19.265-8.891-19.265-19.265c0-23.711 29.638-40.012 63.722-40.012 37.048 0 59.276 16.301 59.276 50.385v78.541c0 17.783 2.964 22.229 26.674 19.265l1.482 11.855c-13.337 4.446-20.747 7.41-31.12 7.41-19.265 0-23.711-7.41-26.674-28.156h-2.964c-14.819 16.301-31.12 28.156-51.867 28.156-31.12 1.482-45.939-14.819-45.939-35.566zM1446.344 779.485v-42.975c-50.385 11.855-60.758 19.265-60.758 40.012 0 13.337 7.41 23.711 25.192 23.711 14.819 1.482 28.156-10.373 35.566-20.747zM1518.958 806.159c20.747 0 26.674-4.446 26.674-11.855v-103.734c0-10.373-5.928-17.783-26.674-17.783v-14.819l57.795-1.482v25.192c19.265-13.337 40.012-25.192 63.722-25.192 25.192 0 41.493 17.783 41.493 50.385v88.915c0 8.891 4.446 11.855 25.192 11.855v14.819h-81.505v-14.819c17.783 0 22.229-4.446 22.229-11.855v-75.577c0-29.638-10.373-38.53-31.12-38.53-16.301 0-29.638 7.41-40.012 13.337v100.77c0 8.891 4.446 11.855 22.229 11.855v14.819h-81.505v-16.301zM1713.088 740.955c0-50.385 35.566-85.951 80.023-85.951 37.048 0 59.276 20.747 59.276 40.012 0 13.337-8.891 23.711-20.747 23.711s-20.747-7.41-20.747-17.783c0-10.373 5.928-16.301 11.855-19.265-4.446-5.928-16.301-11.855-29.638-11.855-26.674 0-45.939 17.783-45.939 63.722 0 42.975 19.265 69.65 53.349 69.65 19.265 0 35.566-10.373 47.421-25.192l8.891 8.891c-14.819 22.229-34.084 37.048-68.168 37.048-45.939 0-75.577-35.566-75.577-82.987zM1902.773 737.991c0 37.048 17.783 66.686 53.349 66.686 19.265 0 37.048-11.855 50.385-29.638l8.891 8.891c-13.337 22.229-34.084 41.493-69.65 41.493-50.385 0-77.059-35.566-77.059-82.987 0-48.903 31.12-85.951 77.059-85.951 50.385 0 69.65 41.493 66.686 81.505h-109.661zM1978.35 721.69c1.482-29.638-10.373-53.349-35.566-53.349-22.229 0-37.048 14.819-40.012 54.831l75.577-1.482zM2027.253 806.159c20.747 0 26.674-4.446 26.674-11.855v-103.734c0-10.373-5.928-17.783-26.674-17.783v-14.819l57.795-1.482v28.156c11.855-16.301 28.156-29.638 45.939-29.638s26.674 11.855 26.674 26.674c0 11.855-8.891 20.747-19.265 20.747s-20.747-5.928-20.747-19.265c0-1.482 0-4.446 0-5.928-16.301 0-26.674 10.373-34.084 19.265v96.324c0 8.891 5.928 11.855 29.638 11.855v14.819h-88.915v-13.337zM2227.311 705.389c0-72.614 53.349-125.962 121.517-125.962 25.192 0 42.975 8.891 56.313 16.301l10.373-14.819h13.337v81.505h-11.855c-16.301-40.012-37.048-63.722-72.614-63.722-41.493 0-77.059 37.048-77.059 106.698 0 65.204 41.493 99.288 82.987 99.288 40.012 0 59.276-22.229 74.096-51.867l14.819 7.41c-14.819 34.084-45.939 68.168-97.806 68.168-66.686-1.482-114.107-50.385-114.107-122.999zM2494.055 737.991c0 37.048 17.783 66.686 53.349 66.686 19.265 0 37.048-11.855 50.385-29.638l8.891 8.891c-13.337 22.229-34.084 41.493-69.65 41.493-50.385 0-77.059-35.566-77.059-82.987 0-48.903 31.12-85.951 77.059-85.951 50.385 0 69.65 41.493 66.686 81.505h-109.661zM2568.151 721.69c1.482-29.638-10.373-53.349-35.566-53.349-22.229 0-37.048 14.819-40.012 54.831l75.577-1.482zM2617.054 806.159c20.747 0 26.674-4.446 26.674-11.855v-103.734c0-10.373-5.928-17.783-26.674-17.783v-14.819l57.795-1.482v25.192c19.265-13.337 40.012-25.192 63.722-25.192 25.192 0 41.493 17.783 41.493 50.385v88.915c0 8.891 4.446 11.855 26.674 11.855v14.819h-81.505v-14.819c17.783 0 22.229-4.446 22.229-11.855v-75.577c0-29.638-10.373-38.53-32.602-38.53-16.301 0-29.638 7.41-40.012 13.337v100.77c0 8.891 4.446 11.855 22.229 11.855v14.819h-81.505v-16.301zM2831.931 779.485v-105.216h-29.638v-11.855l29.638-5.928v-45.939l31.12-13.337v59.276h50.385v17.783h-50.385v100.77c0 19.265 5.928 28.156 20.747 28.156 10.373 0 17.783-7.41 25.192-19.265l10.373 7.41c-13.337 23.711-25.192 32.602-47.421 32.602-26.674 0-40.012-16.301-40.012-44.457zM2963.821 737.991c0 37.048 17.783 66.686 53.349 66.686 20.747 0 37.048-11.855 50.385-29.638l8.891 8.891c-13.337 22.229-34.084 41.493-69.65 41.493-50.385 0-77.059-35.566-77.059-82.987 0-48.903 31.12-85.951 77.059-85.951 50.385 0 69.65 41.493 66.686 81.505h-109.661zM3039.398 721.69c1.482-29.638-8.891-53.349-35.566-53.349-22.229 0-37.048 14.819-40.012 54.831l75.577-1.482zM3088.301 806.159c20.747 0 26.674-4.446 26.674-11.855v-103.734c0-10.373-5.928-17.783-26.674-17.783v-14.819l57.795-1.482v28.156c11.855-16.301 28.156-29.638 45.939-29.638s26.674 11.855 26.674 26.674c0 11.855-8.891 20.747-19.265 20.747s-20.747-5.928-20.747-19.265c0-1.482 0-4.446 0-5.928-16.301 0-26.674 10.373-34.084 19.265v96.324c0 8.891 5.928 11.855 29.638 11.855v14.819h-88.915v-13.337zM277.117 789.858l8.891 1.482-14.819 115.589-13.337-1.482 13.337-102.252-22.229 4.446-1.482-10.373 29.638-7.41zM364.55 915.821c-23.711-1.482-42.975-16.301-41.493-35.566 0-13.337 10.373-23.711 25.192-26.674-10.373-5.928-19.265-14.819-17.783-28.156 0-17.783 19.265-29.638 41.493-28.156 20.747 1.482 38.53 14.819 37.048 32.602 0 13.337-10.373 20.747-20.747 25.192 13.337 5.928 22.229 16.301 22.229 29.638-2.964 20.747-22.229 32.602-45.939 31.12zM367.514 860.99c-16.301-1.482-31.12 7.41-31.12 20.747 0 11.855 10.373 22.229 29.638 23.711s31.12-8.891 31.12-20.747c0-13.337-13.337-22.229-29.638-23.711zM368.996 809.123c-14.819-1.482-26.674 7.41-26.674 19.265-1.482 13.337 10.373 22.229 25.192 22.229s26.674-7.41 28.156-20.747c0-10.373-10.373-20.747-26.674-20.747zM494.958 917.302c-25.192 1.482-44.457-11.855-44.457-31.12 0-13.337 8.891-23.711 22.229-29.638-10.373-4.446-20.747-11.855-20.747-25.192 0-17.783 17.783-31.12 38.53-32.602 20.747 0 40.012 11.855 40.012 29.638 0 13.337-8.891 22.229-19.265 26.674 13.337 4.446 23.711 13.337 25.192 26.674 0 20.747-17.783 34.084-41.493 35.566zM491.994 862.472c-16.301 0-29.638 10.373-29.638 23.711 0 11.855 11.855 20.747 31.12 20.747 19.265-1.482 29.638-10.373 29.638-22.229 0-14.819-13.337-23.711-31.12-22.229zM490.512 809.123c-14.819 0-26.674 8.891-25.192 20.747 0 13.337 11.855 20.747 26.674 20.747s26.674-8.891 25.192-22.229c0-10.373-11.855-19.265-26.674-19.265zM628.33 786.894l10.373 77.059 17.783-2.964 1.482 10.373-17.783 2.964 2.964 26.674-11.855 2.964-2.964-26.674-60.758 7.41-4.446-8.891 54.831-87.433 10.373-1.482zM617.957 806.159l-40.012 65.204 47.421-5.928-7.41-59.276zM477.175 225.25v0l111.143 111.143 35.566-35.566-171.902-171.902-171.902 171.902 35.566 35.566 111.143-111.143v179.311h-122.999v50.385h122.999v42.975h-122.999v50.385h122.999v44.457h-122.999v50.385h122.999v128.926h50.385v-128.926h122.999v-50.385h-122.999v-44.457h121.517v-50.385h-121.517v-42.975h122.999v-50.385h-122.999v-179.311zM886.182 331.948c-37.048-163.010-133.372-269.708-280.081-312.683-44.457-11.855-94.842-19.265-149.673-19.265h-4.446c-57.795 0-111.143 7.41-157.082 20.747-142.263 42.975-237.106 148.191-274.153 311.201-13.337 53.349-20.747 111.143-20.747 176.347s5.928 124.48 17.783 177.829c38.53 170.42 139.3 280.081 294.9 320.093 41.493 10.373 87.433 16.301 136.336 16.301h4.446c48.903 0 94.842-5.928 136.336-14.819 155.601-38.53 256.37-148.191 296.382-320.093 11.855-51.867 17.783-109.661 17.783-171.902 1.482-68.168-4.446-128.926-17.783-183.757zM829.87 687.606c-29.638 120.035-99.288 228.214-244.515 268.226-38.53 10.373-82.987 16.301-134.854 16.301h-4.446c-50.385 0-96.324-7.41-134.854-17.783-143.745-41.493-213.395-148.191-243.033-268.226-14.819-57.795-19.265-120.035-19.265-177.829 0-54.831 5.928-112.625 19.265-167.456 28.156-117.071 91.878-222.287 225.25-266.744 42.975-14.819 94.842-23.711 154.119-23.711h4.446c57.795 0 106.698 8.891 148.191 22.229 136.336 44.457 201.54 149.673 229.696 266.744 13.337 57.795 19.265 118.553 17.783 174.865 1.482 56.313-4.446 115.589-17.783 173.384z"></path>
</svg>
