<svg xmlns="http://www.w3.org/2000/svg" width="601.07" height="108.546"><switch><g><g fill="#0968c3"><path d="M577.746 4.175h-4.18V1.8h10.957v2.376h-4.18v11.178h-2.597V4.175zm9.682-2.376h2.772l4.093 6.425 4.092-6.425h2.685v13.554h-2.509V5.716l-4.18 6.468h-.264l-4.18-6.468v9.637h-2.51V1.799z"/><path d="M55.922 0C23.538 0 0 24.438 0 54.273v.3c0 29.835 23.238 53.973 55.622 53.973s55.922-24.438 55.922-54.273v-.3C111.544 24.138 88.306 0 55.922 0zm31.485 54.573c0 17.991-12.894 32.684-31.485 32.684-18.59 0-31.784-14.993-31.784-32.984v-.3c0-17.99 12.894-32.684 31.484-32.684 18.591 0 31.785 14.993 31.785 32.984v.3zm84.05-29.685c-11.545 0-18.292 6.147-23.54 12.893V26.387H125.13v80.36h22.789V61.92c0-10.794 5.547-16.342 14.243-16.342s13.793 5.548 13.793 16.342v44.828h22.789V54.723c0-18.441-10.045-29.835-27.287-29.835zm81.566 64.018c-12.444 0-20.39-9.895-20.39-22.189v-.3c0-11.844 8.096-21.89 19.49-21.89 8.096 0 13.194 3.45 18.291 8.846l13.944-14.992c-7.497-8.396-16.942-13.493-32.085-13.493-24.587 0-42.129 18.89-42.129 41.83v.299c0 22.939 17.691 41.53 41.83 41.53 16.042 0 25.037-6.148 32.833-14.693L271.464 80.36c-5.548 5.248-10.795 8.546-18.441 8.546zM476.864 1.8h-28.335l-42.28 45.877V1.8h-23.088v104.948h23.089V74.663l12.144-12.594 32.532 44.678h27.737l-44.679-60.42L476.864 1.8zm79.498 50.075c7.493-4.198 13.793-10.794 13.793-22.639v-.3c0-7.196-2.4-13.043-7.197-17.84-5.995-5.998-15.443-9.296-27.437-9.296h-48.725v104.948h49.923c23.688 0 39.281-9.595 39.281-28.786v-.3c0-14.093-7.494-21.139-19.638-25.787zM509.286 22.04h22.786c9.744 0 15.142 3.898 15.142 10.795v.3c0 7.796-6.446 11.094-16.64 11.094h-21.288v-22.19zm43.777 53.074c0 7.796-6.15 11.394-16.344 11.394h-27.433V63.42h26.686c11.844 0 17.091 4.347 17.091 11.394v.3zM330.826 41.619c-13.861 0-25.098 11.237-25.098 25.098 0 13.861 11.237 25.098 25.098 25.098 13.86 0 25.097-11.237 25.097-25.098 0-13.86-11.236-25.098-25.097-25.098zm0 39.738c-8.086 0-14.64-6.554-14.64-14.64s6.554-14.64 14.64-14.64c8.085 0 14.64 6.554 14.64 14.64s-6.555 14.64-14.64 14.64zm0-56.47c-23.102 0-41.83 18.729-41.83 41.83 0 23.102 18.728 41.83 41.83 41.83 23.102 0 41.83-18.728 41.83-41.83 0-23.101-18.728-41.83-41.83-41.83zm0 73.202c-17.326 0-31.372-14.046-31.372-31.372s14.046-31.372 31.372-31.372 31.372 14.046 31.372 31.372-14.046 31.372-31.372 31.372zm0-39.738a8.366 8.366 0 100 16.732 8.366 8.366 0 000-16.732z" fill-rule="evenodd" clip-rule="evenodd"/></g></g></switch></svg>